<svg  viewBox="0 0 125 65" fill="none" xmlns="http://www.w3.org/2000/svg">
	<g id="Home" clip-path="url(#clip0)">
		<rect  transform="translate(-344 -23)" fill="white"/>
		<g id="Header">
			<g id="Mira/Logo/Lockup" clip-path="url(#clip1)">
				<g id="Group">
					<path id="Vector" d="M7.19042 3.24002V25.486H4.00894V3.24002H1.09259V0.232025H10.1068V3.24002H7.19042Z" fill="#505555"/>
					<path id="Vector_2" d="M17.8941 25.486V13.8507H14.6463V25.486H11.4317V0.232025H14.6463V10.7104H17.8941V0.232025H21.1425V25.486H17.8941Z" fill="#505555"/>
					<path id="Vector_3" d="M23.1635 25.486V0.232025H30.7526V3.24002H26.3781V10.9749H30.2886V13.9498H26.3781V22.478H30.852V25.486H23.1635Z" fill="#505555"/>
					<path id="Vector_4" d="M40.1645 3.24002V11.074H43.9425V13.9829H40.1645V25.486H36.9499V0.232025H44.5722V3.24002H40.1645Z" fill="#505555"/>
					<path id="Vector_5" d="M53.6188 25.486H48.1844C46.7702 25.486 46.0634 24.7702 46.0634 23.3374V0.232025H49.2449V22.5772H52.5252V0.232025H55.7736V23.3374C55.7736 24.7702 55.0553 25.486 53.6188 25.486Z" fill="#505555"/>
					<path id="Vector_6" d="M63.1964 3.24002V25.486H60.0149V3.24002H57.0986V0.232025H66.1134V3.24002H63.1964Z" fill="#505555"/>
					<path id="Vector_7" d="M74.9944 25.486H69.5593C68.1451 25.486 67.4384 24.7702 67.4384 23.3374V0.232025H70.6198V22.5772H73.9007V0.232025H77.1485V23.3374C77.1485 24.7702 76.4302 25.486 74.9944 25.486Z" fill="#505555"/>
					<path id="Vector_8" d="M85.9307 25.486L83.1469 14.1812V11.4707H85.4667V3.14085H82.3847V25.486H79.2032V0.232025H86.561C87.9969 0.232025 88.7151 0.948421 88.7151 2.38059V11.7021C88.7151 12.3632 88.5768 12.8539 88.3009 13.173C88.0243 13.4928 87.5992 13.6746 87.025 13.7184H86.2634L89.2129 25.3538V25.486H85.9307Z" fill="#505555"/>
					<path id="Vector_9" d="M90.7361 25.486V0.232025H98.3246V3.24002H93.9507V10.9749H97.8612V13.9498H93.9507V22.478H98.4246V25.486H90.7361Z" fill="#505555"/>
					<path id="Vector_10" d="M14.3819 54.76H11.2998L9.77536 41.7033L9.70908 38.9597L9.6428 41.7033L8.0852 54.76H5.00315L2.2525 29.4729H5.53339L6.62703 43.8518L6.6933 46.7276L6.79273 43.8518L8.38346 29.4729H11.0016L12.5585 43.8518L12.6579 46.7607L12.7242 43.8518L13.851 29.4729H17.1319L14.3819 54.76Z" fill="#505555"/>
					<path id="Vector_11" d="M19.2529 54.7269V29.4729H26.842V32.4809H22.4675V40.2158H26.3787V43.1907H22.4675V51.7189H26.9421V54.7269H19.2529Z" fill="#505555"/>
					<path id="Vector_12" d="M42.3849 54.7269H37.1156C35.723 54.7269 35.0277 54.0111 35.0277 52.5783V31.6209C35.0277 30.1893 35.7237 29.4729 37.1156 29.4729H42.3849C43.8207 29.4729 44.539 30.1893 44.539 31.6209V37.6038H41.2912V32.3811H38.2092V51.8174H41.2912V46.2642H44.539V52.5783C44.539 54.0111 43.8207 54.7269 42.3849 54.7269Z" fill="#505555"/>
					<path id="Vector_13" d="M53.9177 54.7269L51.1339 43.4221V40.7116H53.4537V32.3811H50.3717V54.7263H47.1902V29.4723H54.5473C55.9839 29.4723 56.7021 30.1887 56.7021 31.6202V40.9417C56.7021 41.6028 56.5632 42.0936 56.2878 42.4127C56.0113 42.7324 55.5862 42.9142 55.0119 42.9574H54.2497L57.1992 54.5934V54.7256H53.9177V54.7269Z" fill="#505555"/>
					<path id="Vector_14" d="M59.3853 54.7269V29.4729H66.9744V32.4809H62.5999V40.2158H66.5111V43.1907H62.5999V51.7189H67.0745V54.7269H59.3853Z" fill="#505555"/>
					<path id="Vector_15" d="M76.1874 54.7269L75.6903 49.8672H72.5426L72.0455 54.7269H68.8972V54.6608L72.5757 29.4399H75.7234L79.3695 54.6608V54.7269H76.1874ZM74.3647 38.0005L74.0996 35.1908L73.8344 38.0005L72.8734 46.8923H75.3589L74.3647 38.0005Z" fill="#505555"/>
					<path id="Vector_16" d="M85.7325 32.4809V54.7269H82.551V32.4809H79.6346V29.4729H88.6495V32.4809H85.7325Z" fill="#505555"/>
					<path id="Vector_17" d="M90.6373 54.7269V29.4729H98.2258V32.4809H93.8519V40.2158H97.7624V43.1907H93.8519V51.7189H98.3258V54.7269H90.6373Z" fill="#505555"/>
				</g>
			</g>
		</g>
	</g>
</svg>