<svg viewBox="0 0 125 65" fill="none" xmlns="http://www.w3.org/2000/svg">
<rect fill="white"/>
<g id="Home" clip-path="url(#clip0)">

<g id="Header">
<g id="Group">
<path id="Vector" d="M21.4851 54.6252V32.4835C21.4851 31.8669 21.5208 31.0952 21.5922 30.1697C21.6636 29.2441 21.7464 28.3427 21.842 27.4642C21.937 26.5864 22.0562 25.5305 22.1989 24.296L17.2024 49.072H13.2765L8.27998 24.296C8.42274 25.5305 8.54064 26.5864 8.63687 27.4642C8.73183 28.3427 8.81532 29.2441 8.8867 30.1697C8.95808 31.0952 8.99377 31.8669 8.99377 32.4835V54.6252H2.21274V0.232056H8.99377L14.2045 22.445C14.5365 23.8225 14.7755 25.0913 14.9183 26.2539C15.061 27.4178 15.156 28.6866 15.2038 30.0629C15.2509 28.6866 15.3465 27.4178 15.4893 26.2539C15.632 25.0913 15.8698 23.8218 16.2031 22.445L21.4851 0.232056H28.3376V54.6252H21.4851Z" fill="#E5450A"/>
<path id="Vector_2" d="M32.6917 54.6252V0.232056H39.5441V54.6252H32.6917Z" fill="#E5450A"/>
<path id="Vector_3" d="M58.6017 54.6252L52.6059 30.2765V24.4384H57.6024V6.49723H50.9641V54.6252H44.1124V0.232056H59.9586C63.0515 0.232056 64.5982 1.77483 64.5982 4.85975V24.9368C64.5982 26.3607 64.3006 27.4178 63.706 28.105C63.1107 28.7934 62.1949 29.1856 60.9579 29.2797H59.3162L65.6689 54.3405V54.6252H58.6017Z" fill="#E5450A"/>
<path id="Vector_4" d="M83.5845 54.6252L82.5138 44.1595H75.7328L74.6621 54.6252H67.8811V54.4828L75.8042 0.160217H82.5852L90.4369 54.4828V54.6252H83.5845ZM79.658 18.6004L79.087 12.5488L78.5159 18.6004L76.4459 37.752H81.7994L79.658 18.6004Z" fill="#E5450A"/>
<path id="Vector_5" d="M100.572 43.234H94.6477L93.7198 0.232056H101.429L100.572 43.234ZM94.0053 54.6252V46.9355H101.143V54.6252H94.0053Z" fill="#999999"/>
</g>

</g>
</g>
</svg>
