<svg version="1.1" id="Layer_1" xmlns="http://www.w3.org/2000/svg" xmlns:xlink="http://www.w3.org/1999/xlink" x="0px" y="0px" viewBox="25.299999237060547 152.1999969482422 315.70001220703125 85.99998474121094" style="enable-background:new 0 0 400 400;">
<style type="text/css">
	.st0{fill:#E5450A;}
	.st1{fill:#999999;}
	.st2{fill:#505555;}
</style>
<path class="st0" d="M55.5,237.9v-34.8c0-1,0.1-2.2,0.2-3.6s0.2-2.9,0.4-4.3c0.1-1.4,0.3-3,0.6-5l-7.8,39h-6.2l-7.8-39
	c0.2,1.9,0.4,3.6,0.6,5c0.1,1.4,0.3,2.8,0.4,4.3s0.2,2.7,0.2,3.6v34.8H25.3v-85.6h10.6l8.2,34.9c0.5,2.2,0.9,4.2,1.1,6
	c0.2,1.8,0.4,3.8,0.4,6c0.1-2.2,0.2-4.2,0.4-6c0.2-1.8,0.6-3.8,1.1-6l8.3-34.9h10.8v85.6L55.5,237.9L55.5,237.9z"/>
<path class="st0" d="M73.1,237.9v-85.6h10.8v85.6L73.1,237.9L73.1,237.9z"/>
<path class="st0" d="M113.7,237.9l-9.4-38.3v-9.2h7.8v-28.2h-10.4v75.7H91v-85.6h24.9c4.9,0,7.3,2.4,7.3,7.3v31.6
	c0,2.2-0.5,3.9-1.4,5c-0.9,1.1-2.4,1.7-4.3,1.8h-2.6l10,39.4v0.4L113.7,237.9L113.7,237.9z"/>
<path class="st0" d="M152.9,237.9l-1.7-16.5h-10.6l-1.7,16.5h-10.6v-0.2l12.4-85.5h10.6l12.3,85.5v0.2H152.9z M146.8,181.3l-0.9-9.5
	l-0.9,9.5l-3.2,30.1h8.4L146.8,181.3z"/>
<path class="st1" d="M179.6,220h-9.3l-1.5-67.6h12.1L179.6,220z M169.3,237.9v-12.1h11.2v12.1H169.3z"/>
<g>
	<path class="st2" d="M197.8,157.1v35h-5v-35h-4.6v-4.7h14.1v4.7H197.8z"/>
	<path class="st2" d="M214.6,192.1v-18.3h-5.1v18.3h-5v-39.7h5v16.5h5.1v-16.5h5.1v39.7H214.6z"/>
	<path class="st2" d="M222.9,192.1v-39.7h11.9v4.7h-6.9v12.2h6.1v4.7h-6.1v13.4h7v4.7L222.9,192.1L222.9,192.1z"/>
	<path class="st2" d="M249.6,157.1v12.3h5.9v4.6h-5.9v18.1h-5v-39.7h12v4.7L249.6,157.1L249.6,157.1z"/>
	<path class="st2" d="M270.7,192.1h-8.5c-2.2,0-3.3-1.1-3.3-3.4v-36.3h5v35.2h5.1v-35.2h5.1v36.3C274.1,191,272.9,192.1,270.7,192.1
		z"/>
	<path class="st2" d="M285.7,157.1v35h-5v-35h-4.6v-4.7h14.1v4.7H285.7z"/>
	<path class="st2" d="M304.2,192.1h-8.5c-2.2,0-3.3-1.1-3.3-3.4v-36.3h5v35.2h5.1v-35.2h5.1v36.3C307.6,191,306.5,192.1,304.2,192.1
		z"/>
	<path class="st2" d="M321.4,192.1l-4.4-17.8V170h3.6v-13.1h-4.8v35.2h-5v-39.7h11.5c2.3,0,3.4,1.1,3.4,3.4v14.7
		c0,1-0.2,1.8-0.6,2.3c-0.4,0.5-1.1,0.8-2,0.9h-1.2l4.6,18.3v0.2L321.4,192.1L321.4,192.1z"/>
	<path class="st2" d="M328.9,192.1v-39.7h11.9v4.7H334v12.2h6.1v4.7H334v13.4h7v4.7L328.9,192.1L328.9,192.1z"/>
	<path class="st2" d="M209.1,238.1h-4.8l-2.4-20.5l-0.1-4.3l-0.1,4.3l-2.4,20.5h-4.8l-4.3-39.8h5.1l1.7,22.6l0.1,4.5l0.2-4.5
		l2.5-22.6h4.1l2.4,22.6l0.2,4.6l0.1-4.6l1.8-22.6h5.1L209.1,238.1z"/>
	<path class="st2" d="M216.7,238.1v-39.7h11.9v4.7h-6.9v12.2h6.1v4.7h-6.1v13.4h7v4.7L216.7,238.1L216.7,238.1z"/>
	<path class="st2" d="M253,238.1h-8.3c-2.2,0-3.3-1.1-3.3-3.4v-33c0-2.3,1.1-3.4,3.3-3.4h8.3c2.3,0,3.4,1.1,3.4,3.4v9.4h-5.1v-8.2
		h-4.8v30.6h4.8v-8.7h5.1v9.9C256.4,237,255.3,238.1,253,238.1z"/>
	<path class="st2" d="M271.1,238.1l-4.4-17.8V216h3.6v-13.1h-4.8v35.2h-5v-39.7h11.5c2.3,0,3.4,1.1,3.4,3.4v14.7
		c0,1-0.2,1.8-0.6,2.3c-0.4,0.5-1.1,0.8-2,0.9h-1.2l4.6,18.3v0.2L271.1,238.1L271.1,238.1z"/>
	<path class="st2" d="M279.7,238.1v-39.7h11.9v4.7h-6.9v12.2h6.1v4.7h-6.1v13.4h7v4.7L279.7,238.1L279.7,238.1z"/>
	<path class="st2" d="M306.1,238.1l-0.8-7.6h-4.9l-0.8,7.6h-4.9V238l5.8-39.7h4.9l5.7,39.7v0.1H306.1z M303.2,211.8l-0.4-4.4
		l-0.4,4.4l-1.5,14h3.9L303.2,211.8z"/>
	<path class="st2" d="M321.1,203.1v35h-5v-35h-4.6v-4.7h14.1v4.7H321.1z"/>
	<path class="st2" d="M328.8,238.1v-39.7h11.9v4.7h-6.9v12.2h6.1v4.7h-6.1v13.4h7v4.7L328.8,238.1L328.8,238.1z"/>
</g>
</svg>